<svg height="494pt" viewBox="-66 0 494 494.03597" width="494pt" xmlns="http://www.w3.org/2000/svg"><path d="m65.382812 360.351562c-.570312-3.265624-3.679687-5.449218-6.941406-4.878906l-53.457031 9.351563c-3.265625.570312-5.449219 3.679687-4.875 6.945312l20.515625 117.296875c.273438 1.570313 1.160156 2.964844 2.460938 3.882813 1.304687.914062 2.917968 1.273437 4.484374.996093l53.453126-9.351562c3.261718-.570312 5.445312-3.679688 4.875-6.941406l-1.101563-6.285156 12.714844-10.324219c4.992187-4.15625 11.40625-6.210938 17.886719-5.722657l87.164062 6.371094c.132812.011719.269531.015625.398438.015625 19.296874.066407 38.113281-6.03125 53.703124-17.40625.226563-.167969.445313-.351562.648438-.550781l103.824219-101.660156c2.269531-2.21875 2.414062-5.824219.335937-8.222656-11.789062-13.605469-32.191406-15.550782-46.339844-4.414063l-48.109374 35.976563c-9.765626-12.175782-25.378907-18.078126-40.757813-15.398438l-48.746094 8.523438c-7.847656 1.363281-15.898437.945312-23.5625-1.226563l-5.453125-1.550781c-28.160156-8.089844-58.5-1.621094-80.914062 17.25zm-33.96875 120.734376-18.453124-105.476563 41.636718-7.28125 18.449219 105.476563zm113.8125-113.773438 5.453126 1.550781c9.402343 2.664063 19.285156 3.179688 28.917968 1.507813l48.742188-8.527344c14.472656-2.507812 28.703125 5.53125 34.027344 19.21875l-73.640626 12.878906c-3.261718.570313-5.445312 3.679688-4.875 6.945313.570313 3.265625 3.679688 5.449219 6.945313 4.875l80.125-14.015625c3.265625-.570313 5.449219-3.679688 4.875-6.945313-.539063-3.082031-1.417969-6.097656-2.617187-8.988281l49.207031-36.800781c.039062-.03125.082031-.0625.125-.097657 7.4375-5.886718 17.832031-6.269531 25.679687-.945312l-98.957031 96.902344c-13.382813 9.671875-29.484375 14.867187-46 14.835937l-86.960937-6.355469c-9.546876-.722656-19.003907 2.292969-26.371094 8.410157l-7.46875 6.066406-12.378906-70.765625c19.542968-19.863281 48.390624-27.441406 75.171874-19.75zm0 0"/><path d="m243.691406 185c3.3125 0 6-2.6875 6-6s-2.6875-6-6-6h-43.621094c-3.3125 0-6 2.6875-6 6s2.6875 6 6 6h12.480469c4.734375.113281 9.027344 2.796875 11.207031 7h-23.6875c-3.3125 0-6 2.6875-6 6s2.6875 6 6 6h23.6875c-2.148437 4-6.363281 6-11.207031 6h-12.480469c-2.476562.066406-4.671874 1.609375-5.570312 3.917969-.902344 2.308593-.328125 4.933593 1.449219 6.65625l31.199219 29.519531c1.539062 1.542969 3.796874 2.132812 5.894531 1.53125 2.097656-.601562 3.703125-2.296875 4.1875-4.421875.488281-2.125-.21875-4.351563-1.847657-5.804687l-20.363281-19.023438c10.339844-.949219 18.957031-8.3125 21.507813-18.375h7.164062c3.3125 0 6-2.6875 6-6s-2.6875-6-6-6h-7.164062c-.46875-2.492188-1.417969-4.867188-2.789063-7zm0 0"/><path d="m94.683594 212.40625c0 70.25 56.949218 127.199219 127.199218 127.199219s127.199219-56.949219 127.199219-127.199219-56.949219-127.199219-127.199219-127.199219c-70.21875.078125-127.121093 56.980469-127.199218 127.199219zm31.292968 6.59375c1.433594 21.0625 9.789063 41.058594 23.765626 56.878906l-13.5 13.5c-17.527344-19.425781-27.886719-44.257812-29.367188-70.378906zm32.242188 65.375c15.640625 13.894531 35.402344 22.285156 56.265625 23.886719v19.097656c-25.921875-1.648437-50.515625-12.046875-69.761719-29.488281zm68.265625 24.054688c21.558594-1.015626 42.140625-9.289063 58.40625-23.476563l13.5 13.5c-19.867187 17.738281-45.292969 28.011719-71.90625 29.054687zm-4.601563-11.886719c-46.464843 0-84.136718-37.667969-84.136718-84.136719s37.667968-84.136719 84.136718-84.136719 84.136719 37.671875 84.136719 84.136719c-.054687 46.445312-37.691406 84.082031-84.136719 84.136719zm63.472657-156.273438c-16.332031-14.433593-37.101563-22.859375-58.871094-23.886719v-19.074218c26.824219 1.050781 52.433594 11.476562 72.367187 29.464844zm-70.871094-23.714843c-21.070313 1.617187-41.015625 10.15625-56.726563 24.292968l-13.492187-13.492187c19.308594-17.6875 44.085937-28.238281 70.21875-29.902344zm-65.148437 32.84375c-14.003907 16.058593-22.25 36.328124-23.433594 57.601562h-19.089844c1.21875-26.332031 11.46875-51.4375 29.023438-71.101562zm157.597656 140.628906-13.492188-13.496094c14.316406-15.917969 22.886719-36.171875 24.34375-57.53125h19.097656c-1.496093 26.417969-12.078124 51.507812-29.949218 71.023438zm30.015625-83.027344h-19.089844c-1.199219-21.570312-9.664063-42.101562-24.011719-58.257812l13.5-13.5c17.90625 19.753906 28.371094 45.125 29.601563 71.757812zm0 0"/><path d="m226.484375 65v-59c0-3.3125-2.6875-6-6-6s-6 2.6875-6 6v59c0 3.3125 2.6875 6 6 6s6-2.6875 6-6zm0 0"/><path d="m265.484375 65v-40c0-3.3125-2.6875-6-6-6s-6 2.6875-6 6v40c0 3.3125 2.6875 6 6 6s6-2.6875 6-6zm0 0"/><path d="m188.484375 65v-40c0-3.3125-2.6875-6-6-6s-6 2.6875-6 6v40c0 3.3125 2.6875 6 6 6s6-2.6875 6-6zm0 0"/><path d="m293.484375 75v-31c0-3.3125-2.6875-6-6-6s-6 2.6875-6 6v31c0 3.3125 2.6875 6 6 6s6-2.6875 6-6zm0 0"/><path d="m159.484375 75v-31c0-3.3125-2.6875-6-6-6s-6 2.6875-6 6v31c0 3.3125 2.6875 6 6 6s6-2.6875 6-6zm0 0"/></svg>